<svg xmlns="http://www.w3.org/2000/svg" width="2.875in" height="1.625in" viewBox="0 0 207 117"><rect x="1" y="1" width="205" height="115" style="fill:none;stroke:#000;stroke-miterlimit:10;stroke-width:2px"/><line x1="18.1" y1="27.4048" x2="48.1" y2="27.4048" style="fill:none;stroke:#000;stroke-miterlimit:10;stroke-width:2px"/><line x1="50.6" y1="27.4048" x2="60" y2="27.4048" style="fill:none;stroke:#000;stroke-miterlimit:10;stroke-width:2px"/><line x1="18.1" y1="95.2952" x2="188.6032" y2="95.2952" style="fill:none;stroke:#000;stroke-miterlimit:10;stroke-width:2px"/><line x1="18.1" y1="19.3048" x2="188.6032" y2="19.3048" style="fill:none;stroke:#000;stroke-miterlimit:10;stroke-width:2px"/><line x1="77.6011" y1="28.5048" x2="127.6011" y2="65.6048" style="fill:none;stroke:#848484;stroke-miterlimit:10;stroke-width:2px"/><line x1="127.6011" y1="28.5048" x2="77.6011" y2="65.6048" style="fill:none;stroke:#848484;stroke-miterlimit:10;stroke-width:2px"/><rect x="77.6011" y="28.5048" width="50" height="37.1" style="fill:none;stroke:#000;stroke-miterlimit:10;stroke-width:2px"/><line x1="77.6011" y1="71.6048" x2="100.0011" y2="71.6048" style="fill:none;stroke:#000;stroke-miterlimit:10;stroke-width:2px"/><line x1="77.5011" y1="77.5048" x2="127.6011" y2="77.5048" style="fill:none;stroke:#000;stroke-miterlimit:10;stroke-width:2px"/><line x1="77.4011" y1="80.7048" x2="125.1011" y2="80.7048" style="fill:none;stroke:#000;stroke-miterlimit:10;stroke-width:2px"/><line x1="77.4011" y1="83.9048" x2="122.3011" y2="83.9048" style="fill:none;stroke:#000;stroke-miterlimit:10;stroke-width:2px"/><line x1="77.4011" y1="87.1048" x2="124.8011" y2="87.1048" style="fill:none;stroke:#000;stroke-miterlimit:10;stroke-width:2px"/><line x1="137.9011" y1="28.5048" x2="187.9011" y2="65.6048" style="fill:none;stroke:#848484;stroke-miterlimit:10;stroke-width:2px"/><line x1="187.9011" y1="28.5048" x2="137.9011" y2="65.6048" style="fill:none;stroke:#848484;stroke-miterlimit:10;stroke-width:2px"/><rect x="137.9011" y="28.5048" width="50" height="37.1" style="fill:none;stroke:#000;stroke-miterlimit:10;stroke-width:2px"/><line x1="137.9011" y1="71.6048" x2="175.6011" y2="71.6048" style="fill:none;stroke:#000;stroke-miterlimit:10;stroke-width:2px"/><line x1="137.7011" y1="77.5048" x2="187.9011" y2="77.5048" style="fill:none;stroke:#000;stroke-miterlimit:10;stroke-width:2px"/><line x1="137.6011" y1="80.7048" x2="180.7011" y2="80.7048" style="fill:none;stroke:#000;stroke-miterlimit:10;stroke-width:2px"/><line x1="137.7011" y1="83.9048" x2="182.6011" y2="83.9048" style="fill:none;stroke:#000;stroke-miterlimit:10;stroke-width:2px"/></svg>