<svg xmlns="http://www.w3.org/2000/svg" width="2.875in" height="1.625in" viewBox="0 0 207 117"><rect x="1" y="1" width="205" height="115" style="fill:none;stroke:#000;stroke-miterlimit:10;stroke-width:2px"/><line x1="18.1" y1="19.1" x2="48.1" y2="19.1" style="fill:none;stroke:#000;stroke-miterlimit:10;stroke-width:2px"/><line x1="50.6" y1="19.1" x2="60" y2="19.1" style="fill:none;stroke:#000;stroke-miterlimit:10;stroke-width:2px"/><line x1="18.1" y1="106" x2="188.6032" y2="106" style="fill:none;stroke:#000;stroke-miterlimit:10;stroke-width:2px"/><line x1="77.6011" y1="20.2" x2="99.2011" y2="41.8" style="fill:none;stroke:#848484;stroke-miterlimit:10;stroke-width:2px"/><line x1="99.2011" y1="20.2" x2="77.6011" y2="41.8" style="fill:none;stroke:#848484;stroke-miterlimit:10;stroke-width:2px"/><rect x="77.6011" y="20.2" width="21.6" height="21.6" style="fill:none;stroke:#000;stroke-miterlimit:10;stroke-width:2px"/><line x1="166.3032" y1="20.2" x2="187.9032" y2="41.8" style="fill:none;stroke:#848484;stroke-miterlimit:10;stroke-width:2px"/><line x1="187.9032" y1="20.2" x2="166.3032" y2="41.8" style="fill:none;stroke:#848484;stroke-miterlimit:10;stroke-width:2px"/><rect x="166.3032" y="20.2" width="21.6" height="21.6" style="fill:none;stroke:#000;stroke-miterlimit:10;stroke-width:2px"/><line x1="107.1685" y1="20.2" x2="128.7685" y2="41.8" style="fill:none;stroke:#848484;stroke-miterlimit:10;stroke-width:2px"/><line x1="128.7685" y1="20.2" x2="107.1685" y2="41.8" style="fill:none;stroke:#848484;stroke-miterlimit:10;stroke-width:2px"/><rect x="107.1685" y="20.2" width="21.6" height="21.6" style="fill:none;stroke:#000;stroke-miterlimit:10;stroke-width:2px"/><line x1="136.7358" y1="20.2" x2="158.3358" y2="41.8" style="fill:none;stroke:#848484;stroke-miterlimit:10;stroke-width:2px"/><line x1="158.3358" y1="20.2" x2="136.7358" y2="41.8" style="fill:none;stroke:#848484;stroke-miterlimit:10;stroke-width:2px"/><rect x="136.7358" y="20.2" width="21.6" height="21.6" style="fill:none;stroke:#000;stroke-miterlimit:10;stroke-width:2px"/><line x1="77.6011" y1="49.8" x2="99.2011" y2="71.4" style="fill:none;stroke:#848484;stroke-miterlimit:10;stroke-width:2px"/><line x1="99.2011" y1="49.8" x2="77.6011" y2="71.4" style="fill:none;stroke:#848484;stroke-miterlimit:10;stroke-width:2px"/><rect x="77.6011" y="49.8" width="21.6" height="21.6" style="fill:none;stroke:#000;stroke-miterlimit:10;stroke-width:2px"/><line x1="166.3032" y1="49.8" x2="187.9032" y2="71.4" style="fill:none;stroke:#848484;stroke-miterlimit:10;stroke-width:2px"/><line x1="187.9032" y1="49.8" x2="166.3032" y2="71.4" style="fill:none;stroke:#848484;stroke-miterlimit:10;stroke-width:2px"/><rect x="166.3032" y="49.8" width="21.6" height="21.6" style="fill:none;stroke:#000;stroke-miterlimit:10;stroke-width:2px"/><line x1="107.1685" y1="49.8" x2="128.7685" y2="71.4" style="fill:none;stroke:#848484;stroke-miterlimit:10;stroke-width:2px"/><line x1="128.7685" y1="49.8" x2="107.1685" y2="71.4" style="fill:none;stroke:#848484;stroke-miterlimit:10;stroke-width:2px"/><rect x="107.1685" y="49.8" width="21.6" height="21.6" style="fill:none;stroke:#000;stroke-miterlimit:10;stroke-width:2px"/><line x1="136.7358" y1="49.8" x2="158.3358" y2="71.4" style="fill:none;stroke:#848484;stroke-miterlimit:10;stroke-width:2px"/><line x1="158.3358" y1="49.8" x2="136.7358" y2="71.4" style="fill:none;stroke:#848484;stroke-miterlimit:10;stroke-width:2px"/><rect x="136.7358" y="49.8" width="21.6" height="21.6" style="fill:none;stroke:#000;stroke-miterlimit:10;stroke-width:2px"/><line x1="77.6011" y1="78.4" x2="99.2011" y2="100" style="fill:none;stroke:#848484;stroke-miterlimit:10;stroke-width:2px"/><line x1="99.2011" y1="78.4" x2="77.6011" y2="100" style="fill:none;stroke:#848484;stroke-miterlimit:10;stroke-width:2px"/><rect x="77.6011" y="78.4" width="21.6" height="21.6" style="fill:none;stroke:#000;stroke-miterlimit:10;stroke-width:2px"/><line x1="166.3032" y1="78.4" x2="187.9032" y2="100" style="fill:none;stroke:#848484;stroke-miterlimit:10;stroke-width:2px"/><line x1="187.9032" y1="78.4" x2="166.3032" y2="100" style="fill:none;stroke:#848484;stroke-miterlimit:10;stroke-width:2px"/><rect x="166.3032" y="78.4" width="21.6" height="21.6" style="fill:none;stroke:#000;stroke-miterlimit:10;stroke-width:2px"/><line x1="107.1685" y1="78.4" x2="128.7685" y2="100" style="fill:none;stroke:#848484;stroke-miterlimit:10;stroke-width:2px"/><line x1="128.7685" y1="78.4" x2="107.1685" y2="100" style="fill:none;stroke:#848484;stroke-miterlimit:10;stroke-width:2px"/><rect x="107.1685" y="78.4" width="21.6" height="21.6" style="fill:none;stroke:#000;stroke-miterlimit:10;stroke-width:2px"/><line x1="136.7358" y1="78.4" x2="158.3358" y2="100" style="fill:none;stroke:#848484;stroke-miterlimit:10;stroke-width:2px"/><line x1="158.3358" y1="78.4" x2="136.7358" y2="100" style="fill:none;stroke:#848484;stroke-miterlimit:10;stroke-width:2px"/><rect x="136.7358" y="78.4" width="21.6" height="21.6" style="fill:none;stroke:#000;stroke-miterlimit:10;stroke-width:2px"/><line x1="18.1" y1="11" x2="188.6032" y2="11" style="fill:none;stroke:#000;stroke-miterlimit:10;stroke-width:2px"/></svg>