<svg xmlns="http://www.w3.org/2000/svg" width="0.2917in" height="0.2917in" viewBox="0 0 21 21"><rect x="2" y="5" width="4" height="1"/><rect width="20" height="1"/><rect y="20" width="21" height="1"/><rect y="1" width="1" height="19"/><rect x="20" width="1" height="20"/><rect x="8" y="7" width="2" height="2"/><rect x="11" y="7" width="2" height="2"/><rect x="14" y="7" width="2" height="2"/><rect x="17" y="7" width="2" height="2"/><rect x="8" y="10" width="2" height="2"/><rect x="11" y="10" width="2" height="2"/><rect x="14" y="10" width="2" height="2"/><rect x="17" y="10" width="2" height="2"/><rect x="8" y="13" width="2" height="2"/><rect x="11" y="13" width="2" height="2"/><rect x="14" y="13" width="2" height="2"/><rect x="17" y="13" width="2" height="2"/><rect x="2" y="3" width="17" height="1"/><rect x="2" y="16" width="17" height="1"/></svg>