<svg xmlns="http://www.w3.org/2000/svg" width="0.2917in" height="0.2917in" viewBox="0 0 21 21"><rect x="2" y="6" width="5" height="1"/><rect width="20" height="1"/><rect y="20" width="21" height="1"/><rect y="1" width="1" height="19"/><rect x="20" width="1" height="20"/><rect x="2" y="3" width="4" height="1"/><rect x="9" y="3" width="1" height="15"/><rect x="18" y="3" width="1" height="15"/><rect x="9" y="3" width="9" height="1"/><rect x="9" y="17" width="9" height="1"/><rect x="2" y="8" width="3" height="1"/><rect x="2" y="11" width="5" height="1"/><rect x="2" y="13" width="3" height="1"/><rect x="12" y="4" width="1" height="13" style="fill:#848484"/><rect x="15" y="4" width="1" height="13" style="fill:#848484"/><rect x="10" y="10" width="8" height="1" style="fill:#848484"/><rect x="10" y="14" width="8" height="1" style="fill:#848484"/><rect x="10" y="6" width="8" height="1" style="fill:#848484"/><rect x="14" y="9" width="2" height="2"/></svg>