<svg xmlns="http://www.w3.org/2000/svg" width="2.875in" height="1.625in" viewBox="0 0 207 117"><line x1="100.66" y1="10.5335" x2="100.66" y2="106.3242" style="fill:none;stroke:#848484;stroke-miterlimit:10;stroke-width:2px"/><line x1="122.72" y1="10.6046" x2="122.72" y2="106.3954" style="fill:none;stroke:#848484;stroke-miterlimit:10;stroke-width:2px"/><line x1="166.84" y1="10.6046" x2="166.84" y2="106.3954" style="fill:none;stroke:#848484;stroke-miterlimit:10;stroke-width:2px"/><line x1="144.78" y1="10.5335" x2="144.78" y2="106.3242" style="fill:none;stroke:#848484;stroke-miterlimit:10;stroke-width:2px"/><line x1="78.6" y1="82.3765" x2="188.9" y2="82.3765" style="fill:none;stroke:#848484;stroke-miterlimit:10;stroke-width:2px"/><line x1="78.6" y1="58.4288" x2="188.9" y2="58.4288" style="fill:none;stroke:#848484;stroke-miterlimit:10;stroke-width:2px"/><line x1="78.6" y1="34.4812" x2="188.9" y2="34.4812" style="fill:none;stroke:#848484;stroke-miterlimit:10;stroke-width:2px"/><path d="M188.9,106.3242" style="fill:none;stroke:#848484;stroke-miterlimit:10;stroke-width:2px"/><path d="M78.6,10.5335" style="fill:none;stroke:#848484;stroke-miterlimit:10;stroke-width:2px"/><path d="M78.6,106.3242" style="fill:none;stroke:#848484;stroke-miterlimit:10;stroke-width:2px"/><path d="M188.9,10.5335" style="fill:none;stroke:#848484;stroke-miterlimit:10;stroke-width:2px"/><rect x="78.6" y="10.5335" width="110.3" height="95.7908" style="fill:none;stroke:#000;stroke-miterlimit:10;stroke-width:2px"/><line x1="18.4" y1="24.2335" x2="50.3" y2="24.2335" style="fill:none;stroke:#000;stroke-miterlimit:10;stroke-width:2px"/><line x1="18.2" y1="30.1335" x2="64.3" y2="30.1335" style="fill:none;stroke:#000;stroke-miterlimit:10;stroke-width:2px"/><line x1="18.1" y1="33.3335" x2="57.0714" y2="33.3335" style="fill:none;stroke:#000;stroke-miterlimit:10;stroke-width:2px"/><rect x="1" y="1" width="205" height="115" style="fill:none;stroke:#000;stroke-miterlimit:10;stroke-width:2px"/><line x1="18.2" y1="10.5335" x2="48.2" y2="10.5335" style="fill:none;stroke:#000;stroke-miterlimit:10;stroke-width:2px"/><line x1="50.7" y1="10.5335" x2="60.1" y2="10.5335" style="fill:none;stroke:#000;stroke-miterlimit:10;stroke-width:2px"/><line x1="50.7" y1="14.2335" x2="71.4" y2="14.2335" style="fill:none;stroke:#000;stroke-miterlimit:10;stroke-width:2px"/><line x1="18.1" y1="45.3335" x2="50" y2="45.3335" style="fill:none;stroke:#000;stroke-miterlimit:10;stroke-width:2px"/><line x1="17.9" y1="51.2335" x2="64" y2="51.2335" style="fill:none;stroke:#000;stroke-miterlimit:10;stroke-width:2px"/><line x1="17.8" y1="54.4335" x2="42.7907" y2="54.4335" style="fill:none;stroke:#000;stroke-miterlimit:10;stroke-width:2px"/><line x1="17.8" y1="66.4335" x2="49.7" y2="66.4335" style="fill:none;stroke:#000;stroke-miterlimit:10;stroke-width:2px"/><line x1="17.6" y1="72.3335" x2="63.7" y2="72.3335" style="fill:none;stroke:#000;stroke-miterlimit:10;stroke-width:2px"/><line x1="17.5" y1="75.5335" x2="56.4123" y2="75.5335" style="fill:none;stroke:#000;stroke-miterlimit:10;stroke-width:2px"/><circle cx="100.66" cy="58.5" r="5.1183" style="fill:none;stroke:#000;stroke-miterlimit:10;stroke-width:2px"/><circle cx="166.84" cy="82.3765" r="5.1183" style="fill:none;stroke:#000;stroke-miterlimit:10;stroke-width:2px"/><circle cx="144.78" cy="34.4812" r="5.1183" style="fill:none;stroke:#000;stroke-miterlimit:10;stroke-width:2px"/></svg>