<svg xmlns="http://www.w3.org/2000/svg" width="0.2917in" height="0.2917in" viewBox="0 0 21 21"><rect x="2" y="10" width="8" height="1"/><rect width="20" height="1"/><rect y="20" width="21" height="1"/><rect y="1" width="1" height="19"/><rect x="20" width="1" height="20"/><rect x="11" y="10" width="8" height="1"/><rect x="2" y="8" width="8" height="1"/><rect x="11" y="8" width="8" height="1"/><rect x="2" y="9" width="1" height="1"/><rect x="9" y="9" width="1" height="1"/><rect x="11" y="9" width="1" height="1"/><rect x="18" y="9" width="1" height="1"/><rect x="2" y="13.9968" width="17" height="1"/><rect x="2" y="11.9968" width="17" height="1"/><rect x="2" y="12.9968" width="1" height="1"/><rect x="18" y="12.9968" width="1" height="1"/><rect x="2" y="5.9433" width="8" height="1"/><rect x="11" y="5.9433" width="8" height="1"/><rect x="2" y="3.9433" width="8" height="1"/><rect x="11" y="3.9433" width="8" height="1"/><rect x="2" y="4.9433" width="1" height="1"/><rect x="9" y="4.9433" width="1" height="1"/><rect x="11" y="4.9433" width="1" height="1"/><rect x="18" y="4.9433" width="1" height="1"/><rect x="14" y="16" width="5" height="1"/></svg>