<svg xmlns="http://www.w3.org/2000/svg" width="21" height="21" viewBox="0 0 21 21"><rect width="20" height="20"/><rect y="20" width="21" height="1"/><rect y="1" width="1" height="19"/><rect x="20" width="1" height="20"/><rect x="3.5" y="15" width="7" height="1" style="fill:#fff"/><rect x="3.5" y="17" width="5" height="1" style="fill:#fff"/><rect x="1.6" y="9.5" width="5" height="1" style="fill:#fff"/><polygon points="2.4 10 3.8 8.6 3.1 7.9 1.7 9.3 1 10 1.7 10.7 3.1 12.1 3.8 11.4 2.4 10" style="fill:#fff"/><rect x="14.4" y="9.5" width="5" height="1" style="fill:#fff"/><polygon points="18.6 10 17.2 11.4 17.9 12.1 19.3 10.7 20 10 19.3 9.3 17.9 7.9 17.2 8.6 18.6 10" style="fill:#fff"/></svg>