<svg xmlns="http://www.w3.org/2000/svg" width="207" height="117" viewBox="0 0 207 117"><line x1="153.53" y1="17.17" x2="206" y2="56.09" style="fill:none;stroke:#848484;stroke-miterlimit:10;stroke-width:2px"/><line x1="206" y1="36.58" x2="153.53" y2="75.5" style="fill:none;stroke:#848484;stroke-miterlimit:10;stroke-width:2px"/><line x1="72.4" y1="17.17" x2="151.03" y2="75.5" style="fill:none;stroke:#848484;stroke-miterlimit:10;stroke-width:2px"/><line x1="151.03" y1="17.17" x2="72.4" y2="75.5" style="fill:none;stroke:#848484;stroke-miterlimit:10;stroke-width:2px"/><rect x="72.4" y="17.17" width="78.64" height="58.33" style="fill:none;stroke:#000;stroke-miterlimit:10;stroke-width:2px"/><rect x="153.53" y="17.17" width="52.47" height="58.33" style="fill:none;stroke:#000;stroke-miterlimit:10;stroke-width:2px"/><line x1="72.51" y1="80.44" x2="94.86" y2="80.44" style="fill:none;stroke:#000;stroke-miterlimit:10;stroke-width:2px"/><line x1="153.53" y1="80.44" x2="191.75" y2="80.44" style="fill:none;stroke:#000;stroke-miterlimit:10;stroke-width:2px"/><line x1="72.4" y1="86.38" x2="150.06" y2="86.38" style="fill:none;stroke:#000;stroke-miterlimit:10;stroke-width:2px"/><line x1="72.26" y1="89.58" x2="146.11" y2="89.58" style="fill:none;stroke:#000;stroke-miterlimit:10;stroke-width:2px"/><line x1="72.37" y1="92.78" x2="141.88" y2="92.78" style="fill:none;stroke:#000;stroke-miterlimit:10;stroke-width:2px"/><line x1="72.26" y1="95.99" x2="145.67" y2="95.99" style="fill:none;stroke:#000;stroke-miterlimit:10;stroke-width:2px"/><line x1="153.67" y1="86.38" x2="206" y2="86.38" style="fill:none;stroke:#000;stroke-miterlimit:10;stroke-width:2px"/><line x1="153.53" y1="89.58" x2="206" y2="89.58" style="fill:none;stroke:#000;stroke-miterlimit:10;stroke-width:2px"/><line x1="153.64" y1="92.78" x2="206" y2="92.78" style="fill:none;stroke:#000;stroke-miterlimit:10;stroke-width:2px"/><line x1="153.53" y1="95.99" x2="181.04" y2="95.99" style="fill:none;stroke:#000;stroke-miterlimit:10;stroke-width:2px"/><line x1="72.51" y1="99.83" x2="199.71" y2="99.83" style="fill:none;stroke:#000;stroke-miterlimit:10;stroke-width:2px"/><line x1="7.5" y1="18.1" x2="37.45" y2="18.1" style="fill:none;stroke:#000;stroke-miterlimit:10;stroke-width:2px"/><line x1="39.95" y1="18.1" x2="49.44" y2="18.1" style="fill:none;stroke:#000;stroke-miterlimit:10;stroke-width:2px"/><line x1="39.95" y1="21.84" x2="60.69" y2="21.84" style="fill:none;stroke:#000;stroke-miterlimit:10;stroke-width:2px"/><rect x="1" y="1" width="205" height="115" style="fill:none;stroke:#000;stroke-miterlimit:10;stroke-width:2px"/></svg>