<?xml version="1.0" encoding="utf-8"?>
<!-- Generator: Adobe Illustrator 26.0.2, SVG Export Plug-In . SVG Version: 6.00 Build 0)  -->
<svg version="1.1" id="Layer_1" xmlns="http://www.w3.org/2000/svg" xmlns:xlink="http://www.w3.org/1999/xlink" x="0px" y="0px"
	 viewBox="0 0 207 117" style="enable-background:new 0 0 207 117;" xml:space="preserve">
<style type="text/css">
	.st0{fill:none;stroke:#000000;stroke-width:2;stroke-miterlimit:10;}
</style>
<rect x="1" y="1" class="st0" width="205" height="115"/>
<g>
	<line class="st0" x1="72.5" y1="49.7" x2="199.7" y2="49.7"/>
	<line class="st0" x1="72.5" y1="55.3" x2="199.7" y2="55.3"/>
	<line class="st0" x1="72.5" y1="61" x2="199.7" y2="61"/>
	<line class="st0" x1="72.4" y1="66.6" x2="199.6" y2="66.6"/>
	<line class="st0" x1="72.4" y1="72.3" x2="166.8" y2="72.3"/>
	<line class="st0" x1="7.5" y1="30.2" x2="62.6" y2="30.2"/>
	<line class="st0" x1="7.5" y1="37.1" x2="45.7" y2="37.1"/>
	<line class="st0" x1="7.5" y1="61" x2="25.9" y2="61"/>
	<line class="st0" x1="7.5" y1="72.3" x2="35.7" y2="72.3"/>
	<line class="st0" x1="7.5" y1="68.4" x2="41.7" y2="68.4"/>
	<line class="st0" x1="7.5" y1="64.7" x2="28.2" y2="64.7"/>
	<rect x="72.4" y="80.7" class="st0" width="30" height="6.1"/>
	<line class="st0" x1="82.1" y1="83.8" x2="92.7" y2="83.8"/>
	<rect x="104.9" y="80.7" class="st0" width="30" height="6.1"/>
	<line class="st0" x1="114.5" y1="83.8" x2="125.1" y2="83.8"/>
</g>
</svg>
