<svg xmlns="http://www.w3.org/2000/svg" width="0.2917in" height="0.2917in" viewBox="0 0 21 21"><rect width="20" height="1"/><rect y="20" width="21" height="1"/><rect y="1" width="1" height="19"/><rect x="20" width="1" height="20"/><rect x="14" y="2" width="5" height="1"/><rect x="14" y="18" width="5" height="1"/><rect x="6.8188" y="9.0288" width="0.5747" height="4.1089" style="fill:#848484"/><path d="M7.6758,13.3213h-1.14a.4552.4552,0,0,0-.4731.4062l-.02.169H8.1831l-.0381-.1817A.5093.5093,0,0,0,7.6758,13.3213Z" style="fill:#848484"/><path d="M12.05,8.0049c-.3818-.3853-1.5972-1.28-4.6562-1.33V6.1035H6.8188v.5713c-.643.0151-3.5151.1465-4.6562,1.2915l-.0757.0767.21.42.0923.0005a4.2046,4.2046,0,0,1,2.559.6186l.3038.1109.0556-.0284A4.1217,4.1217,0,0,1,7.106,8.8438a4.1048,4.1048,0,0,1,1.8022.3232l.0439.0229.2461-.041L9.2646,9.12a4.3679,4.3679,0,0,1,2.5586-.6181l.0918-.0005.211-.42ZM9.0366,8.56A4.8091,4.8091,0,0,0,7.106,8.231a5.1227,5.1227,0,0,0-1.93.331,4.641,4.641,0,0,0-1.9522-.6084A8.7752,8.7752,0,0,1,7.106,7.248a8.94,8.94,0,0,1,3.8711.7071A4.5956,4.5956,0,0,0,9.0366,8.56Z" style="fill:#848484"/><rect x="15" y="4" width="3" height="1"/><rect x="14" y="6" width="1" height="1"/><rect x="16" y="6" width="1" height="1"/><rect x="18" y="6" width="1" height="1"/><rect x="14" y="8" width="1" height="1"/><rect x="16" y="8" width="1" height="1"/><rect x="18" y="8" width="1" height="1"/><rect x="14" y="10" width="1" height="1"/><rect x="16" y="10" width="1" height="1"/><rect x="18" y="10" width="1" height="1"/><rect x="14" y="12" width="1" height="1"/><rect x="16" y="12" width="1" height="1"/><rect x="18" y="12" width="1" height="1"/><rect x="14" y="14" width="1" height="1"/><rect x="16" y="14" width="1" height="1"/><rect x="18" y="14" width="1" height="1"/><rect x="14" y="16" width="1" height="1"/><rect x="16" y="16" width="1" height="1"/><rect x="18" y="16" width="1" height="1"/></svg>