<svg xmlns="http://www.w3.org/2000/svg" width="2.875in" height="1.625in" viewBox="0 0 207 117"><rect x="1" y="1" width="205" height="115" style="fill:none;stroke:#000;stroke-miterlimit:10;stroke-width:2px"/><rect x="18.4005" y="27.3024" width="49.999" height="62.3952" style="fill:none;stroke:#000;stroke-miterlimit:10;stroke-width:2px"/><line x1="34.0429" y1="83.05" x2="52.7571" y2="83.05" style="fill:none;stroke:#000;stroke-miterlimit:10;stroke-width:2px"/><rect x="42.3564" y="51.8291" width="2.0874" height="16.0566" style="fill:#848484"/><path d="M45.6914,68.8037l-.019-.0019-4.4883.0009a1.719,1.719,0,0,0-1.8179,1.5411l-.0493.5449H47.56l-.1475-.6162A1.9155,1.9155,0,0,0,45.6914,68.8037Z" style="fill:#848484"/><path d="M62.88,47.7529c-1.1748-1.185-5.96-5.0425-18.4361-5.2329V40.2632H42.3564v2.2573c-2.3452.0483-13.8842.5166-18.4355,5.0816l-.2539.2548.7759,1.5523.3076.001c6.9385.0268,9.8657,2.2163,10.1767,2.4663l1.1348.4106.186-.0947a16.3808,16.3808,0,0,1,7.1519-1.28A16.2654,16.2654,0,0,1,50.5664,52.2l.1475.0762,1.0654-.1773.0981-.0747c.3287-.2495,3.4043-2.4365,10.1719-2.4634l.3076-.0014.7754-1.5513ZM43.4,44.6035c6.5376,0,11.6685.9653,15.6416,2.9468a18.0722,18.0722,0,0,0-8.0034,2.4341,18.7794,18.7794,0,0,0-7.6382-1.31,19.9626,19.9626,0,0,0-7.64,1.3189,18.4092,18.4092,0,0,0-8.0381-2.4463C30.499,46.11,35.335,44.6035,43.4,44.6035Z" style="fill:#848484"/><rect x="78.5005" y="27.3024" width="49.999" height="62.3952" style="fill:none;stroke:#000;stroke-miterlimit:10;stroke-width:2px"/><line x1="94.1429" y1="83.05" x2="112.8571" y2="83.05" style="fill:none;stroke:#000;stroke-miterlimit:10;stroke-width:2px"/><rect x="102.4564" y="51.8291" width="2.0874" height="16.0566" style="fill:#848484"/><path d="M105.7914,68.8037l-.019-.0019-4.4883.0009a1.719,1.719,0,0,0-1.8179,1.5411l-.0493.5449H107.66l-.1475-.6162A1.9155,1.9155,0,0,0,105.7914,68.8037Z" style="fill:#848484"/><path d="M122.98,47.7529c-1.1748-1.185-5.96-5.0425-18.4361-5.2329V40.2632h-2.0874v2.2573c-2.3452.0483-13.8842.5166-18.4355,5.0816l-.2539.2548.7759,1.5523.3076.001c6.9385.0268,9.8657,2.2163,10.1767,2.4663l1.1348.4106.186-.0947a16.3808,16.3808,0,0,1,7.1519-1.28A16.2654,16.2654,0,0,1,110.6664,52.2l.1475.0762,1.0654-.1773.0981-.0747c.3287-.2495,3.4043-2.4365,10.1719-2.4634l.3076-.0014.7754-1.5513ZM103.5,44.6035c6.5376,0,11.6685.9653,15.6416,2.9468a18.0722,18.0722,0,0,0-8.0034,2.4341,18.7794,18.7794,0,0,0-7.6382-1.31,19.9626,19.9626,0,0,0-7.64,1.3189,18.4092,18.4092,0,0,0-8.0381-2.4463C90.599,46.11,95.435,44.6035,103.5,44.6035Z" style="fill:#848484"/><rect x="138.901" y="27.3024" width="49.999" height="62.3952" style="fill:none;stroke:#000;stroke-miterlimit:10;stroke-width:2px"/><line x1="154.5434" y1="83.05" x2="173.2576" y2="83.05" style="fill:none;stroke:#000;stroke-miterlimit:10;stroke-width:2px"/><rect x="162.857" y="51.8291" width="2.0874" height="16.0566" style="fill:#848484"/><path d="M166.1919,68.8037l-.019-.0019-4.4883.0009a1.719,1.719,0,0,0-1.8179,1.5411l-.0493.5449H168.06l-.1475-.6162A1.9155,1.9155,0,0,0,166.1919,68.8037Z" style="fill:#848484"/><path d="M183.38,47.7529c-1.1748-1.185-5.96-5.0425-18.436-5.2329V40.2632H162.857v2.2573c-2.3453.0483-13.8843.5166-18.4356,5.0816l-.2539.2548.7759,1.5523.3076.001c6.9385.0268,9.8657,2.2163,10.1768,2.4663l1.1347.4106.1861-.0947a20.6013,20.6013,0,0,1,14.3183.0073l.1475.0762,1.0654-.1773.0982-.0747c.3286-.2495,3.4043-2.4365,10.1718-2.4634l.3077-.0014.7753-1.5513ZM163.9,44.6035c6.5376,0,11.6685.9653,15.6416,2.9468a18.0722,18.0722,0,0,0-8.0034,2.4341,18.779,18.779,0,0,0-7.6382-1.31,19.9626,19.9626,0,0,0-7.64,1.3189,18.4087,18.4087,0,0,0-8.0381-2.4463C151,46.11,155.8355,44.6035,163.9,44.6035Z" style="fill:#848484"/></svg>