<svg xmlns="http://www.w3.org/2000/svg" width="2.875in" height="1.625in" viewBox="0 0 207 117"><rect x="1" y="1" width="205" height="115" style="fill:none;stroke:#000;stroke-miterlimit:10;stroke-width:2px"/><rect x="64.7954" y="48.6455" width="2.6226" height="36.3125" style="fill:#848484"/><path d="M71.5405,89.58H60.6729a2.8891,2.8891,0,0,0-3.0928,2.622H74.61A3.4314,3.4314,0,0,0,71.5405,89.58Z" style="fill:#848484"/><path d="M67.418,26.18V20.752H64.7954V26.18l-.4946.0053c-3.3745.0357-33.1167.6758-44.3184,11.9122l1.1519,2.3032c17.0884.0654,24.4282,5.5176,25.2939,6.2124l1.8838.6279c1.1343-.5771,6.9209-3.2183,17.7949-3.2183,11.01,0,16.8047,2.7081,17.8355,3.2393l1.8813-.3135c1.0157-.771,8.66-6.1191,25.2554-6.1855l1.1523-2.3042C109.2451,35.4463,97.85,26.5039,67.9126,26.1855ZM108.05,38.042l-1.7051.0972C94.13,38.8374,87.25,42.62,84.8589,44.2144l-.2412.1611-.26-.13c-1.0708-.5356-6.9844-3.2075-18.251-3.2075-7.144,0-13.2939,1.0835-18.2783,3.22L47.6,44.356l-.4956-.2837c-2.7275-1.5679-9.1152-5.24-21.2363-5.9331l-1.6211-.0923,1.3921-.8355c6.39-3.8335,18.5971-8.4033,40.4677-8.4033,17.1787,0,30.4117,2.7466,40.4546,8.3965Z" style="fill:#848484"/><rect x="138.9" y="11" width="50" height="95" style="fill:none;stroke:#000;stroke-miterlimit:10;stroke-width:2px"/><line x1="159.7828" y1="16" x2="168.6808" y2="16" style="fill:none;stroke:#000;stroke-miterlimit:10;stroke-width:2px"/><line x1="142.9" y1="20.2519" x2="184.9" y2="20.2519" style="fill:none;stroke:#000;stroke-miterlimit:10;stroke-width:2px"/><path d="M153.448,26.1812v6.254h-6.254v-6.254h6.254m2-2H145.194v10.254h10.254V24.1812Z"/><path d="M167.3588,26.1812v6.254h-6.254v-6.254h6.254m2-2h-10.254v10.254h10.254V24.1812Z"/><path d="M181.27,26.1812v6.254h-6.2539v-6.254H181.27m2-2H173.0157v10.254H183.27V24.1812Z"/><path d="M153.448,39.4352v6.254h-6.254v-6.254h6.254m2-2H145.194v10.254h10.254V37.4352Z"/><path d="M167.3588,39.4352v6.254h-6.254v-6.254h6.254m2-2h-10.254v10.254h10.254V37.4352Z"/><path d="M181.27,39.4352v6.254h-6.2539v-6.254H181.27m2-2H173.0157v10.254H183.27V37.4352Z"/><path d="M153.448,52.746V59h-6.254V52.746h6.254m2-2H145.194V61h10.254V50.746Z"/><path d="M167.3588,52.746V59h-6.254V52.746h6.254m2-2h-10.254V61h10.254V50.746Z"/><path d="M181.27,52.746V59h-6.2539V52.746H181.27m2-2H173.0157V61H183.27V50.746Z"/><path d="M153.448,66v6.254h-6.254V66h6.254m2-2H145.194V74.254h10.254V64Z"/><path d="M167.3588,66v6.254h-6.254V66h6.254m2-2h-10.254V74.254h10.254V64Z"/><path d="M181.27,66v6.254h-6.2539V66H181.27m2-2H173.0157V74.254H183.27V64Z"/><line x1="159.7828" y1="101" x2="168.6808" y2="101" style="fill:none;stroke:#000;stroke-miterlimit:10;stroke-width:2px"/></svg>