<?xml version="1.0" encoding="utf-8"?>
<!-- Generator: Adobe Illustrator 26.0.2, SVG Export Plug-In . SVG Version: 6.00 Build 0)  -->
<svg version="1.1" id="Layer_1" xmlns="http://www.w3.org/2000/svg" xmlns:xlink="http://www.w3.org/1999/xlink" x="0px" y="0px"
	 viewBox="0 0 207 117" style="enable-background:new 0 0 207 117;" xml:space="preserve">
<style type="text/css">
	.st0{fill:none;stroke:#848484;stroke-width:2;stroke-miterlimit:10;}
	.st1{fill:none;stroke:#000000;stroke-width:2;stroke-miterlimit:10;}
</style>
<line class="st0" x1="153.5" y1="17.2" x2="206" y2="56.1"/>
<line class="st0" x1="206" y1="36.6" x2="153.5" y2="75.5"/>
<line class="st0" x1="72.4" y1="17.2" x2="151" y2="75.5"/>
<line class="st0" x1="151" y1="17.2" x2="72.4" y2="75.5"/>
<rect x="72.4" y="17.2" class="st1" width="78.6" height="58.3"/>
<rect x="153.5" y="17.2" class="st1" width="52.5" height="58.3"/>
<line class="st1" x1="72.5" y1="83.4" x2="94.9" y2="83.4"/>
<line class="st1" x1="153.5" y1="83.4" x2="191.8" y2="83.4"/>
<line class="st1" x1="72.4" y1="89.4" x2="111.7" y2="89.4"/>
<line class="st1" x1="153.7" y1="89.4" x2="177.3" y2="89.4"/>
<line class="st1" x1="72.5" y1="99.8" x2="199.7" y2="99.8"/>
<line class="st1" x1="7.5" y1="18.1" x2="37.5" y2="18.1"/>
<line class="st1" x1="40" y1="18.1" x2="49.4" y2="18.1"/>
<line class="st1" x1="40" y1="21.8" x2="60.7" y2="21.8"/>
<rect x="1" y="1" class="st1" width="205" height="115"/>
</svg>
