<?xml version="1.0" encoding="utf-8"?>
<!-- Generator: Adobe Illustrator 26.0.2, SVG Export Plug-In . SVG Version: 6.00 Build 0)  -->
<svg version="1.1" id="Layer_1" xmlns="http://www.w3.org/2000/svg" xmlns:xlink="http://www.w3.org/1999/xlink" x="0px" y="0px"
	 viewBox="0 0 207 117" style="enable-background:new 0 0 207 117;" xml:space="preserve">
<style type="text/css">
	.st0{fill:none;stroke:#000000;stroke-width:2;stroke-miterlimit:10;}
</style>
<rect x="1" y="1" class="st0" width="205" height="115"/>
<line class="st0" x1="1" y1="21" x2="206" y2="21"/>
<line class="st0" x1="137.7" y1="1" x2="137.7" y2="21"/>
<line class="st0" x1="69.3" y1="1" x2="69.3" y2="21"/>
<line class="st0" x1="11" y1="11" x2="59.3" y2="11"/>
<line class="st0" x1="30.2" y1="16" x2="40.2" y2="16"/>
<line class="st0" x1="49.3" y1="16" x2="59.3" y2="16"/>
<line class="st0" x1="11" y1="16" x2="21" y2="16"/>
<line class="st0" x1="30.2" y1="6" x2="40.2" y2="6"/>
<line class="st0" x1="79.3" y1="11" x2="127.7" y2="11"/>
<line class="st0" x1="147.7" y1="11" x2="196" y2="11"/>
<circle class="st0" cx="46.3" cy="11" r="2"/>
<line class="st0" x1="98.5" y1="16" x2="108.5" y2="16"/>
<line class="st0" x1="117.7" y1="16" x2="127.7" y2="16"/>
<line class="st0" x1="79.3" y1="16" x2="89.3" y2="16"/>
<line class="st0" x1="98.5" y1="6" x2="108.5" y2="6"/>
<circle class="st0" cx="103.5" cy="11" r="2"/>
<line class="st0" x1="166.8" y1="16" x2="176.8" y2="16"/>
<line class="st0" x1="186" y1="16" x2="196" y2="16"/>
<line class="st0" x1="147.7" y1="16" x2="157.7" y2="16"/>
<line class="st0" x1="166.8" y1="6" x2="176.8" y2="6"/>
<circle class="st0" cx="183" cy="11" r="2"/>
</svg>
