<?xml version="1.0" encoding="utf-8"?>
<!-- Generator: Adobe Illustrator 26.0.2, SVG Export Plug-In . SVG Version: 6.00 Build 0)  -->
<svg version="1.1" id="Layer_1" xmlns="http://www.w3.org/2000/svg" xmlns:xlink="http://www.w3.org/1999/xlink" x="0px" y="0px"
	 viewBox="0 0 207 117" style="enable-background:new 0 0 207 117;" xml:space="preserve">
<style type="text/css">
	.st0{fill:none;stroke:#848484;stroke-width:2;stroke-miterlimit:10;}
	.st1{fill:none;stroke:#000000;stroke-width:2;stroke-miterlimit:10;}
</style>
<line class="st0" x1="78.6" y1="29.2" x2="128.6" y2="66.3"/>
<line class="st0" x1="128.6" y1="29.2" x2="78.6" y2="66.3"/>
<rect x="78.6" y="29.2" class="st1" width="50" height="37.1"/>
<line class="st1" x1="78.6" y1="72.3" x2="101" y2="72.3"/>
<line class="st1" x1="78.5" y1="78.2" x2="128.6" y2="78.2"/>
<line class="st1" x1="78.4" y1="81.4" x2="126.1" y2="81.4"/>
<line class="st1" x1="78.4" y1="84.6" x2="123.3" y2="84.6"/>
<line class="st1" x1="78.4" y1="87.8" x2="125.8" y2="87.8"/>
<line class="st0" x1="18.4" y1="29.2" x2="68.4" y2="66.3"/>
<line class="st0" x1="68.4" y1="29.2" x2="18.4" y2="66.3"/>
<rect x="18.4" y="29.2" class="st1" width="50" height="37.1"/>
<line class="st1" x1="18.4" y1="72.3" x2="50.3" y2="72.3"/>
<line class="st1" x1="18.2" y1="78.2" x2="64.3" y2="78.2"/>
<line class="st1" x1="18.1" y1="81.4" x2="65.8" y2="81.4"/>
<line class="st1" x1="18.2" y1="84.6" x2="63.1" y2="84.6"/>
<line class="st1" x1="18.1" y1="87.8" x2="49.6" y2="87.8"/>
<line class="st0" x1="138.9" y1="29.2" x2="188.9" y2="66.3"/>
<line class="st0" x1="188.9" y1="29.2" x2="138.9" y2="66.3"/>
<rect x="138.9" y="29.2" class="st1" width="50" height="37.1"/>
<line class="st1" x1="138.9" y1="72.3" x2="176.6" y2="72.3"/>
<line class="st1" x1="138.7" y1="78.2" x2="188.9" y2="78.2"/>
<line class="st1" x1="138.6" y1="81.4" x2="181.7" y2="81.4"/>
<line class="st1" x1="138.7" y1="84.6" x2="183.6" y2="84.6"/>
<rect x="1" y="1" class="st1" width="205" height="115"/>
</svg>
