<svg xmlns="http://www.w3.org/2000/svg" width="24.585" height="24.995" viewBox="0 0 24.585 24.995"><g transform="translate(0 0)"><path d="M33.049,15.676c0,.956.137,2.732.137,5.19a48.682,48.682,0,0,1-.137,5.19c-.137.956-.273,1.912-.41,2.732a6.65,6.65,0,0,1-1.5,2.459,5.716,5.716,0,0,1-2.459,1.5,8.214,8.214,0,0,1-2.732.41,48.684,48.684,0,0,1-5.19.137,48.684,48.684,0,0,1-5.19-.137,16.113,16.113,0,0,1-2.732-.546,6.65,6.65,0,0,1-2.459-1.5,4.238,4.238,0,0,1-1.229-2.459,8.214,8.214,0,0,1-.41-2.732c0-1.093-.137-2.732-.137-5.19a48.683,48.683,0,0,1,.137-5.19c.137-.956.273-1.912.41-2.732a4.435,4.435,0,0,1,1.366-2.459,6.817,6.817,0,0,1,2.322-1.5,8.214,8.214,0,0,1,2.732-.41,48.683,48.683,0,0,1,5.19-.137,48.683,48.683,0,0,1,5.19.137c.956.137,1.912.273,2.732.41a10.714,10.714,0,0,1,2.459,1.5,6.26,6.26,0,0,1,1.5,2.459A9.08,9.08,0,0,1,33.049,15.676ZM30.454,28.1a8.307,8.307,0,0,0,.41-3c0-.82.137-1.912.137-3.415V19.91a23.277,23.277,0,0,0-.137-3.415,26.593,26.593,0,0,0-.41-3,3.9,3.9,0,0,0-2.322-2.322,7.82,7.82,0,0,0-3-.41c-.82,0-1.912-.137-3.415-.137H19.937a23.277,23.277,0,0,0-3.415.137c-1.366.137-2.322.273-3,.41A3.9,3.9,0,0,0,11.2,13.49a7.82,7.82,0,0,0-.41,3c0,.82-.137,1.912-.137,3.415v1.776a23.277,23.277,0,0,0,.137,3.415c.137,1.366.273,2.322.41,3a3.9,3.9,0,0,0,2.322,2.322,8.307,8.307,0,0,0,3,.41c.82,0,1.912.137,3.415.137h1.776a23.277,23.277,0,0,0,3.415-.137,26.6,26.6,0,0,0,3-.41A4.3,4.3,0,0,0,30.454,28.1Zm-9.7-13.658a7.274,7.274,0,0,1,3.278.82,7.53,7.53,0,0,1,2.322,2.322,5.356,5.356,0,0,1,.82,3.278,7.274,7.274,0,0,1-.82,3.278,7.53,7.53,0,0,1-2.322,2.322,6.489,6.489,0,0,1-3.278.82,6.345,6.345,0,0,1-3.141-.82,7.53,7.53,0,0,1-2.322-2.322,6.489,6.489,0,0,1-.82-3.278,7.274,7.274,0,0,1,.82-3.278,7.53,7.53,0,0,1,2.322-2.322A6.739,6.739,0,0,1,20.756,14.446Zm0,10.517A4.057,4.057,0,0,0,23.624,18a4.057,4.057,0,1,0-5.737,5.737A4.165,4.165,0,0,0,20.756,24.963Zm8.2-10.79a1.063,1.063,0,0,0-.41-.956,1.475,1.475,0,0,0-.956-.41,1.063,1.063,0,0,0-.956.41,1.475,1.475,0,0,0-.41.956c0,.273.137.82.41.956a2.892,2.892,0,0,0,.956.41,1.063,1.063,0,0,0,.956-.41A6.659,6.659,0,0,0,28.951,14.173Z" transform="translate(-8.6 -8.3)" fill="#203e23"/></g></svg>