<svg xmlns="http://www.w3.org/2000/svg" width="17.865" height="17.865" viewBox="0 0 17.865 17.865"><path d="M13.061,13.76a1.969,1.969,0,0,0,1.512-.687,2.207,2.207,0,0,0,.687-1.512,2.207,2.207,0,0,0-.687-1.512,1.877,1.877,0,0,0-1.512-.55,1.877,1.877,0,0,0-1.512.55A3.381,3.381,0,0,0,11,11.561a2.207,2.207,0,0,0,.687,1.512A1.908,1.908,0,0,0,13.061,13.76Zm1.924,13.6h0l.137-11.956h-3.71V27.365Zm13.88,0v-6.6a8.06,8.06,0,0,0-.825-4.123A3.927,3.927,0,0,0,24.467,15a4.633,4.633,0,0,0-2.336.687,3.547,3.547,0,0,0-1.237,1.237h-.137V15.272H17.184V27.227h3.71V21.318a3.862,3.862,0,0,1,.412-2.061,1.948,1.948,0,0,1,1.924-.962,1.657,1.657,0,0,1,1.649,1.1,7.446,7.446,0,0,1,.275,2.061v5.772l3.71.137Z" transform="translate(-11 -9.5)" fill="#203e23"/></svg>